<svg xmlns="http://www.w3.org/2000/svg" width="180" height="180" viewBox="0 0 180 180" version="1.1"><path d="M 71 43.096 C 71 59.136, 69.069 61, 52.453 61 L 42 61 42 101.845 C 42 140.145, 42.114 142.793, 43.829 144.345 C 46.026 146.333, 128.427 146.912, 132.066 144.965 C 133.942 143.961, 134 142.290, 134 89.500 C 134 36.710, 133.942 35.039, 132.066 34.035 C 130.858 33.389, 119.034 33, 100.566 33 L 71 33 71 43.096 M 55.020 45.475 L 45.540 55 54.147 55 C 64.901 55, 65.175 54.719, 64.792 44.072 L 64.500 35.950 55.020 45.475 M 47.667 101.667 C 46.242 103.091, 46.932 115, 48.440 115 C 49.378 115, 49.994 113.695, 50.208 111.250 L 50.537 107.500 52.454 111.250 C 55.760 117.718, 58.154 116.409, 57.796 108.330 C 57.452 100.569, 55.306 98.309, 54.811 105.187 L 54.500 109.500 52.230 105.250 C 50.011 101.097, 49.017 100.316, 47.667 101.667 M 60 108 C 60 113.556, 60.310 115, 61.500 115 C 62.433 115, 63 114.056, 63 112.500 C 63 110.558, 63.513 110, 65.300 110 C 69.696 110, 71.522 105.665, 68.429 102.571 C 67.564 101.707, 65.314 101, 63.429 101 L 60 101 60 108 M 63 105.500 C 63 106.530, 63.655 107.020, 64.750 106.810 C 66.858 106.404, 66.725 104.629, 64.553 104.177 C 63.647 103.988, 63 104.539, 63 105.500 M 48.655 125.829 C 47.745 126.835, 47 129.240, 47 131.174 C 47 137.265, 52.727 140.169, 56.506 135.994 C 58.816 133.440, 57.725 132.274, 54.594 133.950 C 51.548 135.580, 50 134.634, 50 131.141 C 50 127.272, 51.648 125.882, 54.627 127.240 C 57.493 128.545, 58.768 127.631, 57.020 125.524 C 55.289 123.438, 50.666 123.606, 48.655 125.829 M 108.355 126.518 C 108.035 127.352, 107.261 127.974, 106.636 127.899 C 101.625 127.299, 101 127.864, 101 133 C 101 136.778, 101.367 138, 102.500 138 C 103.539 138, 104 136.956, 104 134.607 C 104 132.435, 104.569 130.995, 105.582 130.607 C 107.890 129.721, 107.852 129.676, 108.190 133.750 C 108.439 136.762, 108.943 137.563, 110.750 137.820 C 113.316 138.184, 113.483 137.747, 111.806 135.061 C 110.888 133.592, 110.883 132.551, 111.784 130.574 C 112.489 129.028, 112.566 128, 111.979 128 C 111.440 128, 111 127.325, 111 126.500 C 111 124.547, 109.106 124.560, 108.355 126.518 M 62.693 127.740 C 61.699 127.976, 60.450 129.316, 59.917 130.719 C 57.979 135.816, 64.583 140.618, 67.950 136.560 C 70.857 133.058, 67.069 126.702, 62.693 127.740 M 115.204 128.570 C 112.821 130.238, 112.392 132.995, 114.035 136.066 C 115.306 138.441, 119.268 138.591, 121.128 136.334 C 122.363 134.834, 122.232 134.735, 119.811 135.338 C 118.323 135.708, 116.846 135.559, 116.502 135.004 C 116.138 134.414, 117.172 134, 119.011 134 C 121.638 134, 122.088 133.658, 121.820 131.865 C 121.299 128.389, 117.888 126.690, 115.204 128.570 M 71 133.083 C 71 139.138, 73.313 139.572, 73.814 133.611 C 74.217 128.813, 76.388 129.332, 76.810 134.327 C 77.274 139.809, 79 138.762, 79 133 L 79 128 75 128 L 71 128 71 133.083 M 81 128.980 C 81 135.827, 86.013 139.634, 87.940 134.250 C 88.679 132.188, 89.492 129.938, 89.748 129.250 C 90.004 128.563, 89.528 128, 88.690 128 C 87.852 128, 86.733 129.238, 86.203 130.750 L 85.238 133.500 84.144 130.750 C 83.095 128.115, 81 126.935, 81 128.980 M 91.714 128.619 C 88.999 131.335, 91.789 138, 95.641 138 C 98.384 138, 99.760 136.095, 97.878 134.904 C 96.786 134.212, 96.774 134.027, 97.816 134.015 C 98.660 134.005, 99.019 133.012, 98.816 131.250 C 98.501 128.508, 93.630 126.704, 91.714 128.619 M 124 132 C 124 134.200, 123.966 136.326, 123.925 136.725 C 123.884 137.124, 124.334 137.611, 124.925 137.808 C 125.538 138.013, 126 136.829, 126 135.052 C 126 133.281, 126.614 131.702, 127.423 131.391 C 130.372 130.260, 130.069 128, 126.969 128 C 124.172 128, 124 128.232, 124 132 M 63.639 130.694 C 62.403 131.930, 63.017 135, 64.500 135 C 65.325 135, 66 134.127, 66 133.059 C 66 130.972, 64.682 129.651, 63.639 130.694 M 94 131 C 94 131.550, 94.450 132, 95 132 C 95.550 132, 96 131.550, 96 131 C 96 130.450, 95.550 130, 95 130 C 94.450 130, 94 130.450, 94 131 M 117.500 131 C 117.840 131.550, 118.343 132, 118.618 132 C 118.893 132, 118.840 131.550, 118.500 131 C 118.160 130.450, 117.657 130, 117.382 130 C 117.107 130, 117.160 130.450, 117.500 131 M 64.079 132.583 C 64.127 133.748, 64.364 133.985, 64.683 133.188 C 64.972 132.466, 64.936 131.603, 64.604 131.271 C 64.272 130.939, 64.036 131.529, 64.079 132.583 M 94.333 134.667 C 94.700 135.033, 95.300 135.033, 95.667 134.667 C 96.033 134.300, 95.733 134, 95 134 C 94.267 134, 93.967 134.300, 94.333 134.667" stroke="none" fill="#282525" fill-rule="evenodd"/><path d="M 50.737 41.763 L 37 55.526 37 100.340 L 37 145.154 39.923 148.077 L 42.846 151 88.367 151 L 133.888 151 136.694 148.587 L 139.500 146.174 139.775 91.355 C 140.135 19.742, 145.448 28, 99.014 28 L 64.473 28 50.737 41.763 M 71 42.032 C 71 58.282, 68.284 61, 52.050 61 L 42 61 42 102.300 C 42 152.567, 35.081 146, 88.045 146 C 142.302 146, 135 154.813, 135 89.326 C 135 24.658, 140.010 33, 101.171 33 L 71 33 71 42.032 M 54.699 44.800 C 42.997 56.547, 43.065 56, 53.309 56 C 64.488 56, 64.863 55.642, 65.098 44.726 C 65.339 33.484, 65.977 33.479, 54.699 44.800 M 48 108.667 C 48 112.333, 48.324 115.009, 48.720 114.613 C 49.116 114.217, 49.307 112.342, 49.144 110.446 C 48.751 105.886, 50.119 106.088, 52.880 111 C 56.027 116.599, 57 116.009, 57 108.500 C 57 104.833, 56.564 102, 56 102 C 55.450 102, 54.982 103.912, 54.961 106.250 L 54.922 110.500 52.359 106.250 C 48.846 100.424, 48 100.893, 48 108.667 M 60 108.500 C 60 112.167, 60.436 115, 61 115 C 61.550 115, 62 113.875, 62 112.500 C 62 110.579, 62.521 109.996, 64.250 109.985 C 68.352 109.957, 70.510 107.018, 68.830 103.750 C 68.202 102.529, 66.731 102, 63.965 102 L 60 102 60 108.500 M 63 106.073 C 63 108.636, 66.310 108.345, 66.812 105.739 C 67.043 104.539, 66.504 104, 65.073 104 C 63.642 104, 63 104.642, 63 106.073 M 49.828 125.036 C 47.274 126.527, 46.526 131.627, 48.435 134.541 C 50.310 137.403, 55.678 138.002, 56.655 135.457 C 57.539 133.154, 56.166 132.391, 54.713 134.377 C 51.893 138.234, 47.573 132.535, 49.950 128.093 C 51.204 125.750, 53.010 125.410, 54.783 127.183 C 56.452 128.852, 57.554 127.372, 56.020 125.524 C 54.582 123.791, 52.274 123.609, 49.828 125.036 M 108.495 126.564 C 107.948 127.424, 106.037 128.167, 104.250 128.216 C 100.916 128.307, 99.119 135.720, 102 137.500 C 102.581 137.859, 103 136.868, 103 135.130 C 103 128.643, 108.185 127.234, 109 133.500 C 109.741 139.197, 111.500 138.846, 111.500 133 C 111.500 130.250, 111.114 128, 110.643 128 C 110.172 128, 110.045 127.325, 110.362 126.500 C 111.120 124.523, 109.764 124.569, 108.495 126.564 M 61.200 129.200 C 58.962 131.438, 59.755 135.931, 62.617 137.235 C 67.030 139.246, 70.914 133.057, 67.429 129.571 C 65.557 127.700, 62.861 127.539, 61.200 129.200 M 71 132.600 C 71 135.020, 71.450 137, 72 137 C 72.550 137, 73 135.473, 73 133.607 C 73 131.619, 73.580 129.991, 74.402 129.676 C 76.390 128.913, 77 129.850, 77 133.667 C 77 135.500, 77.476 137, 78.057 137 C 81.672 137, 78.421 128.497, 74.750 128.350 L 71 128.200 71 132.600 M 81.495 129.750 C 81.885 130.713, 82.653 132.738, 83.200 134.250 C 84.623 138.181, 86.490 137.647, 87.911 132.903 C 89.441 127.795, 88.599 126.608, 86.655 131.134 L 85.209 134.500 84.007 131.250 C 83.345 129.463, 82.350 128, 81.795 128 C 81.231 128, 81.098 128.771, 81.495 129.750 M 92.200 129.200 C 89.996 131.404, 90.753 135.930, 93.537 137.199 C 95.656 138.164, 96.356 138.058, 97.787 136.553 C 99.420 134.836, 99.374 134.781, 96.811 135.380 C 95.332 135.725, 93.877 135.610, 93.578 135.125 C 93.278 134.640, 94.375 133.975, 96.016 133.647 C 100.261 132.798, 99.398 128, 95 128 C 94.120 128, 92.860 128.540, 92.200 129.200 M 114.067 129.874 C 111.823 134.068, 114.843 138.819, 118.928 137.523 C 121.887 136.584, 121.500 134.836, 118.500 135.589 C 116.609 136.064, 116 135.825, 116 134.608 C 116 133.492, 116.908 133, 118.968 133 C 121.623 133, 121.849 132.763, 121.110 130.750 C 119.997 127.718, 115.519 127.161, 114.067 129.874 M 124 132.625 C 124 135.031, 124.450 137, 125 137 C 125.550 137, 126 135.636, 126 133.969 C 126 132.197, 126.623 130.698, 127.500 130.362 C 129.839 129.464, 129.264 128.250, 126.500 128.250 C 124.214 128.250, 124 128.625, 124 132.625 M 62.362 131.500 C 61.561 133.586, 62.744 136.251, 64.251 135.756 C 66.215 135.111, 66.468 130, 64.535 130 C 63.656 130, 62.678 130.675, 62.362 131.500 M 93.500 131 C 93.160 131.550, 93.835 132, 95 132 C 96.165 132, 96.840 131.550, 96.500 131 C 96.160 130.450, 95.485 130, 95 130 C 94.515 130, 93.840 130.450, 93.500 131 M 116 131 C 116 131.550, 116.675 132, 117.500 132 C 118.325 132, 119 131.550, 119 131 C 119 130.450, 118.325 130, 117.500 130 C 116.675 130, 116 130.450, 116 131" stroke="none" fill="#ebebec" fill-rule="evenodd"/><path d="M 50.737 41.763 L 37 55.526 37 100.340 L 37 145.154 39.923 148.077 L 42.846 151 88.367 151 L 133.888 151 136.694 148.587 L 139.500 146.174 139.775 91.355 C 140.135 19.742, 145.448 28, 99.014 28 L 64.473 28 50.737 41.763 M 71 42.032 C 71 58.282, 68.284 61, 52.050 61 L 42 61 42 102.300 C 42 152.567, 35.081 146, 88.045 146 C 142.302 146, 135 154.813, 135 89.326 C 135 24.658, 140.010 33, 101.171 33 L 71 33 71 42.032 M 54.699 44.800 C 42.997 56.547, 43.065 56, 53.309 56 C 64.488 56, 64.863 55.642, 65.098 44.726 C 65.339 33.484, 65.977 33.479, 54.699 44.800 M 48 108.667 C 48 112.333, 48.324 115.009, 48.720 114.613 C 49.116 114.217, 49.307 112.342, 49.144 110.446 C 48.751 105.886, 50.119 106.088, 52.880 111 C 56.027 116.599, 57 116.009, 57 108.500 C 57 104.833, 56.564 102, 56 102 C 55.450 102, 54.982 103.912, 54.961 106.250 L 54.922 110.500 52.359 106.250 C 48.846 100.424, 48 100.893, 48 108.667 M 60 108.500 C 60 112.167, 60.436 115, 61 115 C 61.550 115, 62 113.875, 62 112.500 C 62 110.579, 62.521 109.996, 64.250 109.985 C 68.352 109.957, 70.510 107.018, 68.830 103.750 C 68.202 102.529, 66.731 102, 63.965 102 L 60 102 60 108.500 M 63 106.073 C 63 108.636, 66.310 108.345, 66.812 105.739 C 67.043 104.539, 66.504 104, 65.073 104 C 63.642 104, 63 104.642, 63 106.073 M 49.828 125.036 C 47.274 126.527, 46.526 131.627, 48.435 134.541 C 50.310 137.403, 55.678 138.002, 56.655 135.457 C 57.539 133.154, 56.166 132.391, 54.713 134.377 C 51.893 138.234, 47.573 132.535, 49.950 128.093 C 51.204 125.750, 53.010 125.410, 54.783 127.183 C 56.452 128.852, 57.554 127.372, 56.020 125.524 C 54.582 123.791, 52.274 123.609, 49.828 125.036 M 108.495 126.564 C 107.948 127.424, 106.037 128.167, 104.250 128.216 C 100.916 128.307, 99.119 135.720, 102 137.500 C 102.581 137.859, 103 136.868, 103 135.130 C 103 128.643, 108.185 127.234, 109 133.500 C 109.741 139.197, 111.500 138.846, 111.500 133 C 111.500 130.250, 111.114 128, 110.643 128 C 110.172 128, 110.045 127.325, 110.362 126.500 C 111.120 124.523, 109.764 124.569, 108.495 126.564 M 61.200 129.200 C 58.962 131.438, 59.755 135.931, 62.617 137.235 C 67.030 139.246, 70.914 133.057, 67.429 129.571 C 65.557 127.700, 62.861 127.539, 61.200 129.200 M 71 132.600 C 71 135.020, 71.450 137, 72 137 C 72.550 137, 73 135.473, 73 133.607 C 73 131.619, 73.580 129.991, 74.402 129.676 C 76.390 128.913, 77 129.850, 77 133.667 C 77 135.500, 77.476 137, 78.057 137 C 81.672 137, 78.421 128.497, 74.750 128.350 L 71 128.200 71 132.600 M 81.495 129.750 C 81.885 130.713, 82.653 132.738, 83.200 134.250 C 84.623 138.181, 86.490 137.647, 87.911 132.903 C 89.441 127.795, 88.599 126.608, 86.655 131.134 L 85.209 134.500 84.007 131.250 C 83.345 129.463, 82.350 128, 81.795 128 C 81.231 128, 81.098 128.771, 81.495 129.750 M 92.200 129.200 C 89.996 131.404, 90.753 135.930, 93.537 137.199 C 95.656 138.164, 96.356 138.058, 97.787 136.553 C 99.420 134.836, 99.374 134.781, 96.811 135.380 C 95.332 135.725, 93.877 135.610, 93.578 135.125 C 93.278 134.640, 94.375 133.975, 96.016 133.647 C 100.261 132.798, 99.398 128, 95 128 C 94.120 128, 92.860 128.540, 92.200 129.200 M 114.067 129.874 C 111.823 134.068, 114.843 138.819, 118.928 137.523 C 121.887 136.584, 121.500 134.836, 118.500 135.589 C 116.609 136.064, 116 135.825, 116 134.608 C 116 133.492, 116.908 133, 118.968 133 C 121.623 133, 121.849 132.763, 121.110 130.750 C 119.997 127.718, 115.519 127.161, 114.067 129.874 M 124 132.625 C 124 135.031, 124.450 137, 125 137 C 125.550 137, 126 135.636, 126 133.969 C 126 132.197, 126.623 130.698, 127.500 130.362 C 129.839 129.464, 129.264 128.250, 126.500 128.250 C 124.214 128.250, 124 128.625, 124 132.625 M 62.362 131.500 C 61.561 133.586, 62.744 136.251, 64.251 135.756 C 66.215 135.111, 66.468 130, 64.535 130 C 63.656 130, 62.678 130.675, 62.362 131.500 M 93.500 131 C 93.160 131.550, 93.835 132, 95 132 C 96.165 132, 96.840 131.550, 96.500 131 C 96.160 130.450, 95.485 130, 95 130 C 94.515 130, 93.840 130.450, 93.500 131 M 116 131 C 116 131.550, 116.675 132, 117.500 132 C 118.325 132, 119 131.550, 119 131 C 119 130.450, 118.325 130, 117.500 130 C 116.675 130, 116 130.450, 116 131" stroke="none" fill="#ebebec" fill-rule="evenodd"/><path d="M 67 2.062 C 18.337 15.358, -11.619 69.224, 3.362 116.493 C 34.449 214.577, 176.787 195.722, 180.707 93 C 182.997 32.981, 124.644 -13.687, 67 2.062 M 50.737 41.763 L 37 55.526 37 100.340 L 37 145.154 39.923 148.077 L 42.846 151 88.367 151 L 133.888 151 136.694 148.587 L 139.500 146.174 139.775 91.355 C 140.135 19.742, 145.448 28, 99.014 28 L 64.473 28 50.737 41.763 M 54.731 44.768 C 42.952 56.591, 43.001 56.047, 53.750 55.796 L 62.500 55.593 54.063 55.253 L 45.626 54.913 54.992 45.508 C 60.143 40.335, 64.797 36.374, 65.333 36.706 C 65.874 37.040, 65.991 36.794, 65.595 36.155 C 64.642 34.611, 65.631 33.827, 54.731 44.768 M 134.466 89.500 C 134.466 119.200, 134.594 131.206, 134.749 116.179 C 134.905 101.153, 134.905 76.853, 134.749 62.179 C 134.593 47.506, 134.466 59.800, 134.466 89.500 M 70 53 C 70 53.733, 70.300 54.033, 70.667 53.667 C 71.033 53.300, 71.033 52.700, 70.667 52.333 C 70.300 51.967, 70 52.267, 70 53 M 63.405 54.155 C 62.962 54.870, 63.130 55.038, 63.845 54.595 C 64.480 54.203, 65 53.684, 65 53.441 C 65 52.607, 64.117 53.002, 63.405 54.155 M 0.389 90.500 C 0.390 97.650, 0.550 100.444, 0.742 96.708 C 0.935 92.973, 0.934 87.123, 0.739 83.708 C 0.545 80.294, 0.387 83.350, 0.389 90.500 M 47.415 102.362 C 47.127 103.111, 47.056 106.374, 47.257 109.612 L 47.622 115.500 47.811 108.643 C 47.969 102.902, 48.253 101.883, 49.552 102.382 C 50.442 102.723, 50.843 102.555, 50.493 101.989 C 49.619 100.575, 48.026 100.769, 47.415 102.362 M 55.696 101.700 C 56.355 102.168, 57.067 105.465, 57.279 109.026 L 57.666 115.500 57.583 108.580 C 57.520 103.325, 57.139 101.562, 56 101.254 C 54.946 100.968, 54.856 101.101, 55.696 101.700 M 61.762 101.707 C 63.006 101.946, 64.806 101.937, 65.762 101.687 C 66.718 101.437, 65.700 101.241, 63.500 101.252 C 61.300 101.263, 60.518 101.468, 61.762 101.707 M 64.500 107 C 62.870 107.701, 62.812 107.872, 64.191 107.930 C 65.121 107.968, 66.160 107.550, 66.500 107 C 67.211 105.850, 67.176 105.850, 64.500 107 M 69 107 C 69 107.733, 69.300 108.033, 69.667 107.667 C 70.033 107.300, 70.033 106.700, 69.667 106.333 C 69.300 105.967, 69 106.267, 69 107 M 49 110 C 49 111.650, 49.174 113, 49.387 113 C 49.599 113, 49.971 111.650, 50.213 110 C 50.455 108.350, 50.282 107, 49.827 107 C 49.372 107, 49 108.350, 49 110 M 62.195 112.500 C 62.215 114.150, 62.439 114.704, 62.693 113.731 C 62.947 112.758, 62.930 111.408, 62.656 110.731 C 62.382 110.054, 62.175 110.850, 62.195 112.500 M 56.100 125.705 C 56.829 126.917, 57.640 127.694, 57.903 127.431 C 58.166 127.168, 57.570 126.176, 56.579 125.226 C 54.857 123.577, 54.835 123.598, 56.100 125.705 M 50.405 127.155 C 49.962 127.870, 50.130 128.038, 50.845 127.595 C 51.480 127.203, 52 126.684, 52 126.441 C 52 125.607, 51.117 126.002, 50.405 127.155 M 110 127 C 110 127.733, 110.300 128.033, 110.667 127.667 C 111.033 127.300, 111.033 126.700, 110.667 126.333 C 110.300 125.967, 110 126.267, 110 127 M 47 128 C 47 128.733, 47.300 129.033, 47.667 128.667 C 48.033 128.300, 48.033 127.700, 47.667 127.333 C 47.300 126.967, 47 127.267, 47 128 M 60.405 129.155 C 59.962 129.870, 60.130 130.038, 60.845 129.595 C 61.480 129.203, 62 128.684, 62 128.441 C 62 127.607, 61.117 128.002, 60.405 129.155 M 89 129 C 89 129.733, 89.300 130.033, 89.667 129.667 C 90.033 129.300, 90.033 128.700, 89.667 128.333 C 89.300 127.967, 89 128.267, 89 129 M 91.405 129.155 C 90.962 129.870, 91.130 130.038, 91.845 129.595 C 92.480 129.203, 93 128.684, 93 128.441 C 93 127.607, 92.117 128.002, 91.405 129.155 M 97.500 129 C 97.840 129.550, 98.343 130, 98.618 130 C 98.893 130, 98.840 129.550, 98.500 129 C 98.160 128.450, 97.657 128, 97.382 128 C 97.107 128, 97.160 128.450, 97.500 129 M 49.158 131 C 49.158 132.375, 49.385 132.938, 49.662 132.250 C 49.940 131.563, 49.940 130.438, 49.662 129.750 C 49.385 129.063, 49.158 129.625, 49.158 131 M 75.500 130 C 75.840 130.550, 76.343 131, 76.618 131 C 76.893 131, 76.840 130.550, 76.500 130 C 76.160 129.450, 75.657 129, 75.382 129 C 75.107 129, 75.160 129.450, 75.500 130 M 105 130.082 C 103.826 130.903, 103.990 130.993, 105.750 130.498 C 107.776 129.928, 108 130.214, 108 133.374 C 108 135.303, 108.364 137.107, 108.809 137.382 C 109.255 137.657, 109.367 136.033, 109.059 133.773 C 108.461 129.374, 107.396 128.406, 105 130.082 M 62.298 131.667 C 61.578 133.543, 62.693 136.015, 64.219 135.921 C 65.222 135.859, 65.229 135.733, 64.250 135.338 C 63.563 135.060, 63.032 133.858, 63.070 132.667 C 63.136 130.628, 63.186 130.615, 63.902 132.446 C 64.647 134.350, 64.676 134.348, 65.195 132.363 C 65.797 130.061, 63.157 129.427, 62.298 131.667 M 73.150 133.167 C 73.067 135.183, 72.438 137.060, 71.750 137.338 C 70.771 137.733, 70.778 137.859, 71.781 137.921 C 73.480 138.026, 74.247 135.821, 73.724 132.334 C 73.359 129.896, 73.279 130.013, 73.150 133.167 M 86 131 C 86 131.733, 86.300 132.033, 86.667 131.667 C 87.033 131.300, 87.033 130.700, 86.667 130.333 C 86.300 129.967, 86 130.267, 86 131 M 116 131.167 C 116 131.625, 116.423 132, 116.941 132 C 117.459 132, 118.114 131.625, 118.397 131.167 C 118.680 130.708, 118.257 130.333, 117.456 130.333 C 116.655 130.333, 116 130.708, 116 131.167 M 121 131 C 121 131.733, 121.300 132.033, 121.667 131.667 C 122.033 131.300, 122.033 130.700, 121.667 130.333 C 121.300 129.967, 121 130.267, 121 131 M 126.507 130.989 C 126.157 131.555, 126.558 131.723, 127.448 131.382 C 129.180 130.717, 129.497 130, 128.059 130 C 127.541 130, 126.843 130.445, 126.507 130.989 M 88 132 C 88 132.733, 88.300 133.033, 88.667 132.667 C 89.033 132.300, 89.033 131.700, 88.667 131.333 C 88.300 130.967, 88 131.267, 88 132 M 59 133 C 59 133.733, 59.300 134.033, 59.667 133.667 C 60.033 133.300, 60.033 132.700, 59.667 132.333 C 59.300 131.967, 59 132.267, 59 133 M 82 133 C 82 133.733, 82.300 134.033, 82.667 133.667 C 83.033 133.300, 83.033 132.700, 82.667 132.333 C 82.300 131.967, 82 132.267, 82 133 M 84.500 133 C 84.840 133.550, 85.343 134, 85.618 134 C 85.893 134, 85.840 133.550, 85.500 133 C 85.160 132.450, 84.657 132, 84.382 132 C 84.107 132, 84.160 132.450, 84.500 133 M 103.232 135 C 103.232 136.925, 103.438 137.713, 103.689 136.750 C 103.941 135.787, 103.941 134.213, 103.689 133.250 C 103.438 132.287, 103.232 133.075, 103.232 135 M 47 133.623 C 47 135.642, 50.803 138.167, 53.168 137.717 C 55.311 137.308, 55.282 137.261, 52.807 137.136 C 51.271 137.059, 49.444 136.045, 48.557 134.777 C 47.701 133.555, 47 133.035, 47 133.623 M 57 134 C 57 134.733, 57.300 135.033, 57.667 134.667 C 58.033 134.300, 58.033 133.700, 57.667 133.333 C 57.300 132.967, 57 133.267, 57 134 M 96.458 134.068 C 96.095 134.656, 95.056 134.854, 94.149 134.509 C 92.890 134.030, 92.776 134.159, 93.666 135.056 C 94.558 135.956, 95.373 135.852, 97.138 134.616 C 98.407 133.727, 98.921 133, 98.282 133 C 97.642 133, 96.821 133.481, 96.458 134.068 M 117.250 133.689 C 118.213 133.941, 119.787 133.941, 120.750 133.689 C 121.713 133.438, 120.925 133.232, 119 133.232 C 117.075 133.232, 116.287 133.438, 117.250 133.689 M 53 135 C 52.099 135.582, 51.975 135.975, 52.691 135.985 C 53.346 135.993, 54.160 135.550, 54.500 135 C 55.267 133.758, 54.921 133.758, 53 135 M 67.100 136.295 C 65.835 138.402, 65.857 138.423, 67.579 136.774 C 68.570 135.824, 69.166 134.832, 68.903 134.569 C 68.640 134.306, 67.829 135.083, 67.100 136.295 M 111.564 136.293 C 111.940 137.279, 112.499 137.834, 112.807 137.526 C 113.115 137.219, 112.808 136.412, 112.124 135.733 C 111.136 134.753, 111.022 134.868, 111.564 136.293 M 97.405 137.155 C 96.962 137.870, 97.130 138.038, 97.845 137.595 C 98.480 137.203, 99 136.684, 99 136.441 C 99 135.607, 98.117 136.002, 97.405 137.155 M 114.500 137 C 114.840 137.550, 115.343 138, 115.618 138 C 115.893 138, 115.840 137.550, 115.500 137 C 115.160 136.450, 114.657 136, 114.382 136 C 114.107 136, 114.160 136.450, 114.500 137 M 123.733 137.124 C 124.412 137.808, 125.219 138.115, 125.526 137.807 C 125.834 137.499, 125.279 136.940, 124.293 136.564 C 122.868 136.022, 122.753 136.136, 123.733 137.124 M 77.333 137.667 C 77.700 138.033, 78.300 138.033, 78.667 137.667 C 79.033 137.300, 78.733 137, 78 137 C 77.267 137, 76.967 137.300, 77.333 137.667 M 84.813 137.683 C 85.534 137.972, 86.397 137.936, 86.729 137.604 C 87.061 137.272, 86.471 137.036, 85.417 137.079 C 84.252 137.127, 84.015 137.364, 84.813 137.683 M 42 143.378 C 42 143.585, 42.788 144.373, 43.750 145.128 C 45.336 146.371, 45.371 146.336, 44.128 144.750 C 42.821 143.084, 42 142.555, 42 143.378" stroke="none" fill="#4e2550" fill-rule="evenodd"/></svg>